<svg width="42" height="48" viewBox="0 0 42 48" fill="none" xmlns="http://www.w3.org/2000/svg">
<path d="M9.75 16V11.5C9.75 8.51631 10.9353 5.65483 13.045 3.54505C15.1548 1.43526 18.0163 0.25 21 0.25C23.9837 0.25 26.8452 1.43526 28.955 3.54505C31.0647 5.65483 32.25 8.51631 32.25 11.5V16H39C39.5967 16 40.169 16.2371 40.591 16.659C41.0129 17.081 41.25 17.6533 41.25 18.25V45.25C41.25 45.8467 41.0129 46.419 40.591 46.841C40.169 47.2629 39.5967 47.5 39 47.5H3C2.40326 47.5 1.83097 47.2629 1.40901 46.841C0.987053 46.419 0.75 45.8467 0.75 45.25V18.25C0.75 17.6533 0.987053 17.081 1.40901 16.659C1.83097 16.2371 2.40326 16 3 16H9.75ZM9.75 20.5H5.25V43H36.75V20.5H32.25V25H27.75V20.5H14.25V25H9.75V20.5ZM14.25 16H27.75V11.5C27.75 9.70979 27.0388 7.9929 25.773 6.72703C24.5071 5.46116 22.7902 4.75 21 4.75C19.2098 4.75 17.4929 5.46116 16.227 6.72703C14.9612 7.9929 14.25 9.70979 14.25 11.5V16Z" fill="#828282"/>
</svg>
