<svg width="21" height="19" viewBox="0 0 21 19" fill="none" xmlns="http://www.w3.org/2000/svg">
<path d="M8.828 0C8.298 0 7.789 0.21 7.414 0.586L2.586 5.414C2.211 5.789 2 6.298 2 6.828V14H0V16H8.126C8.571 17.726 10.136 19 12 19C13.864 19 15.43 17.726 15.874 16H20C20.552 16 21 15.552 21 15V2C21 0.895 20.105 0 19 0H8.828ZM12 13C13.105 13 14 13.895 14 15C14 16.105 13.105 17 12 17C10.895 17 10 16.105 10 15C10 13.895 10.895 13 12 13ZM8.828 2H19V14H15.874C15.43 12.275 13.864 11 12 11C10.136 11 8.57 12.275 8.126 14H4V6.828L8.828 2ZM9 4V10H17V4H9ZM11 6H15V8H11V6Z" fill="#5B8E19"/>
</svg>
