<svg width="28" height="27" viewBox="0 0 28 27" fill="none" xmlns="http://www.w3.org/2000/svg">
<path d="M4.99906 6.01754L0.945312 1.96504L2.71406 0.196289L6.76656 4.25004H25.8191C26.0139 4.25003 26.206 4.29556 26.3801 4.383C26.5543 4.47044 26.7055 4.59737 26.8219 4.75366C26.9382 4.90995 27.0164 5.09127 27.0502 5.28315C27.084 5.47503 27.0725 5.67215 27.0166 5.85879L24.0166 15.8588C23.9394 16.1164 23.7812 16.3422 23.5655 16.5028C23.3497 16.6634 23.088 16.7501 22.8191 16.75H7.49906V19.25H21.2491V21.75H6.24906C5.91754 21.75 5.5996 21.6183 5.36518 21.3839C5.13076 21.1495 4.99906 20.8316 4.99906 20.5V6.01754ZM7.49906 6.75004V14.25H21.8891L24.1391 6.75004H7.49906ZM6.87406 26.75C6.37678 26.75 5.89987 26.5525 5.54824 26.2009C5.19661 25.8492 4.99906 25.3723 4.99906 24.875C4.99906 24.3778 5.19661 23.9008 5.54824 23.5492C5.89987 23.1976 6.37678 23 6.87406 23C7.37134 23 7.84826 23.1976 8.19989 23.5492C8.55152 23.9008 8.74906 24.3778 8.74906 24.875C8.74906 25.3723 8.55152 25.8492 8.19989 26.2009C7.84826 26.5525 7.37134 26.75 6.87406 26.75ZM21.8741 26.75C21.3768 26.75 20.8999 26.5525 20.5482 26.2009C20.1966 25.8492 19.9991 25.3723 19.9991 24.875C19.9991 24.3778 20.1966 23.9008 20.5482 23.5492C20.8999 23.1976 21.3768 23 21.8741 23C22.3713 23 22.8483 23.1976 23.1999 23.5492C23.5515 23.9008 23.7491 24.3778 23.7491 24.875C23.7491 25.3723 23.5515 25.8492 23.1999 26.2009C22.8483 26.5525 22.3713 26.75 21.8741 26.75Z" fill="white"/>
</svg>
