<svg width="33" height="34" viewBox="0 0 33 34" fill="none" xmlns="http://www.w3.org/2000/svg">
<circle cx="16.5" cy="16.5" r="16.5" fill="#5B8E19"/>
<path d="M20.6392 21.44V23H12.1792V22.12L12.8992 21.4C14.4859 19.8 15.6392 18.6067 16.3592 17.82C17.0792 17.0333 17.6392 16.3067 18.0392 15.64C18.4526 14.9733 18.6592 14.3467 18.6592 13.76C18.6592 13.0133 18.4659 12.4467 18.0792 12.06C17.6926 11.66 17.1459 11.46 16.4392 11.46C15.8659 11.46 15.2926 11.5867 14.7192 11.84C14.1459 12.0933 13.6192 12.42 13.1392 12.82L12.1592 11.66C12.7459 11.0867 13.4259 10.6333 14.1992 10.3C14.9859 9.96667 15.8059 9.8 16.6592 9.8C17.3926 9.8 18.0526 9.94667 18.6392 10.24C19.2392 10.5333 19.7059 10.96 20.0392 11.52C20.3859 12.0667 20.5592 12.7067 20.5592 13.44C20.5592 14.2267 20.3726 15 19.9992 15.76C19.6259 16.5067 19.0726 17.3 18.3392 18.14C17.6059 18.98 16.5526 20.08 15.1792 21.44H20.6392Z" fill="#F2F2F2"/>
</svg>
