<svg width="114" height="81" viewBox="0 0 114 81" fill="none" xmlns="http://www.w3.org/2000/svg">
<path d="M7.09301 0.402252C3.74669 1.481 1.17091 4.38701 0.510457 7.90945C0.202244 9.49454 0.202244 71.4894 0.510457 73.0745C1.19293 76.619 3.76871 79.525 7.15905 80.6037C8.41392 80.978 10.3953 81 56.6493 81C102.903 81 104.885 80.978 106.14 80.6037C109.53 79.525 112.106 76.619 112.788 73.0745C113.096 71.4894 113.096 9.49454 112.788 7.90945C112.106 4.365 109.53 1.45898 106.14 0.380241C104.885 0.00598145 102.925 -0.016037 56.5832 0.00598145C10.8356 0.00598145 8.25982 0.0279922 7.09301 0.402252ZM105.655 3.30827C107.262 3.90267 108.649 5.20158 109.42 6.78667L110.036 8.01952V40.492V72.9644L109.42 74.1973C108.649 75.7824 107.262 77.0813 105.655 77.6757L104.4 78.138H56.6493H8.89826L7.64339 77.6757C6.03628 77.0813 4.64932 75.7824 3.87879 74.1973L3.26236 72.9644V40.492V8.01952L3.85677 6.80869C4.64932 5.20158 5.86016 4.05678 7.46727 3.39632L8.76617 2.84595H56.5832H104.4L105.655 3.30827Z" fill="#BDBDBD"/>
<path d="M27.4126 20.7663C21.6006 22.9458 19.2009 29.4623 22.239 34.9001C24.1103 38.2464 28.2712 40.2058 32.1679 39.6114C38.7505 38.5987 42.3609 31.3777 39.3008 25.3895C37.1874 21.2286 31.7936 19.1372 27.4126 20.7663ZM33.5549 23.8044C35.14 24.5309 36.5049 25.9619 37.0773 27.503C37.7377 29.2422 37.5836 31.5978 36.725 33.2049C34.9418 36.4632 31.0011 37.7401 27.6768 36.0889C22.3711 33.4691 22.6573 25.9619 28.1611 23.6283C29.8343 22.9238 31.7936 22.9899 33.5549 23.8044Z" fill="#BDBDBD"/>
<path d="M58.7841 23.7163C58.0356 24.5309 58.4759 25.8078 59.5766 26.0719C59.8408 26.138 68.9111 26.16 79.7206 26.138C98.8958 26.0719 99.4022 26.0719 99.7104 25.6536C100.129 25.0592 100.107 24.1126 99.6223 23.6943C99.2481 23.3421 97.5089 23.32 79.1702 23.32C60.0389 23.32 59.1143 23.3421 58.7841 23.7163Z" fill="#BDBDBD"/>
<path d="M59.5116 31.1795C58.565 31.5318 58.1027 32.6325 58.587 33.359C59.0713 34.0855 59.5997 34.1075 79.2153 34.1075C98.8308 34.1075 99.3592 34.0855 99.8435 33.359C100.174 32.8967 100.02 31.9721 99.5573 31.5538C99.117 31.1575 98.4346 31.1355 79.4574 31.0915C68.67 31.0694 59.6878 31.1135 59.5116 31.1795Z" fill="#BDBDBD"/>
<path d="M59.5105 39.1051C58.2997 39.5454 58.0355 40.8222 58.9821 41.5708C59.5765 42.0331 59.6646 42.0331 79.1261 42.0331C93.5901 42.0331 98.8297 41.967 99.248 41.7689C100.349 41.2625 100.261 39.5894 99.1159 39.1931C98.3894 38.9509 60.193 38.8629 59.5105 39.1051Z" fill="#BDBDBD"/>
<path d="M23.2302 42.2532C18.7171 43.4421 15.2387 46.7223 13.7636 51.1474C13.3674 52.3803 13.2133 53.393 13.1252 55.8146C13.0592 57.5318 13.0592 59.183 13.1472 59.4912C13.4774 60.8121 12.3987 60.746 30.6713 60.746C48.944 60.746 47.8652 60.8121 48.1955 59.4912C48.2835 59.183 48.2835 57.5318 48.2175 55.8146C48.1294 53.2829 47.9973 52.4023 47.557 51.1034C45.9939 46.5682 42.6036 43.4201 38.0244 42.2532C36.5274 41.857 35.6027 41.8129 30.5833 41.835C25.6519 41.835 24.6172 41.901 23.2302 42.2532ZM38.0244 45.2253C39.7416 45.8417 40.9965 46.6563 42.2513 47.9112C44.3428 49.9806 45.2014 52.2482 45.2014 55.6165V57.8841H30.6713H16.1413V55.6165C16.1413 52.2482 16.9999 49.9806 19.0913 47.9112C20.7865 46.216 22.988 45.0932 25.1675 44.829C25.5858 44.763 28.4258 44.741 31.4419 44.785C36.0651 44.829 37.1218 44.8951 38.0244 45.2253Z" fill="#BDBDBD"/>
<path d="M58.9831 47.3387C58.2786 47.889 58.2125 48.8357 58.873 49.4301C59.3133 49.8264 59.9738 49.8484 79.2151 49.8484C98.4564 49.8484 99.1168 49.8264 99.5571 49.4301C100.019 49.0118 100.174 48.0872 99.8433 47.6249C99.359 46.8983 98.8306 46.8763 79.149 46.8763C59.6656 46.8763 59.5775 46.8763 58.9831 47.3387Z" fill="#BDBDBD"/>
<path d="M59.1807 55.066C58.9385 55.1981 58.6744 55.4183 58.5863 55.5504C58.2781 55.9907 58.4102 56.9373 58.8065 57.2896C59.1807 57.6418 60.9199 57.6638 79.2586 57.6638C98.3898 57.6638 99.3145 57.6418 99.6447 57.2675C100.041 56.8493 100.129 55.9686 99.8428 55.5504C99.3585 54.8239 98.8301 54.8018 79.1705 54.8018C65.0148 54.8239 59.4889 54.8899 59.1807 55.066Z" fill="#BDBDBD"/>
</svg>
