<svg width="22" height="18" viewBox="0 0 22 18" fill="none" xmlns="http://www.w3.org/2000/svg">
<path d="M1.55964 0.81455C0.807692 1.0165 0.197535 1.65244 0.0428479 2.3958C0.0127698 2.54619 -0.0001208 3.26807 0.00847295 4.56143C0.0213636 6.44346 0.0256604 6.50361 0.111598 6.61963C0.279176 6.84307 0.399489 6.90322 0.786207 6.94189C1.38777 7.00205 1.80457 7.19971 2.18269 7.59932C2.92605 8.38135 2.92605 9.61885 2.18269 10.4009C1.80457 10.8005 1.38777 10.9981 0.786207 11.0583C0.399489 11.097 0.279176 11.1571 0.111598 11.3806C0.0256604 11.4966 0.0213636 11.5567 0.00847295 13.4388C-0.0001208 14.7321 0.0127698 15.454 0.0428479 15.6044C0.201832 16.3563 0.811988 16.988 1.57683 17.1856C1.95066 17.2845 20.0491 17.2845 20.4229 17.1856C21.1878 16.988 21.7979 16.3563 21.9569 15.6044C21.987 15.454 21.9999 14.7321 21.9913 13.4388C21.9784 11.5567 21.9741 11.4966 21.8882 11.3806C21.7249 11.1571 21.6003 11.097 21.2307 11.0583C20.6464 11.0024 20.3026 10.8521 19.903 10.4868C19.0393 9.6833 19.0393 8.31689 19.903 7.51338C20.3026 7.14814 20.6464 6.99775 21.2307 6.94189C21.6003 6.90322 21.7249 6.84307 21.8882 6.61963C21.9741 6.50361 21.9784 6.44346 21.9913 4.56143C21.9999 3.26807 21.987 2.54619 21.9569 2.3958C21.7979 1.64385 21.1878 1.01221 20.4229 0.81455C20.062 0.720019 1.90769 0.724316 1.55964 0.81455ZM20.3069 2.23682C20.3714 2.28408 20.4659 2.37861 20.5132 2.44307C20.5991 2.55478 20.6034 2.62353 20.6163 4.10596C20.6292 5.5626 20.6249 5.64853 20.5518 5.64853C20.3885 5.65283 19.7268 5.94072 19.4432 6.12978C18.6397 6.6626 18.1155 7.44893 17.935 8.38994C17.63 9.98408 18.5624 11.6212 20.1093 12.2099C20.3112 12.2872 20.5089 12.3474 20.5518 12.3517C20.6249 12.3517 20.6292 12.4376 20.6163 13.8942C20.6034 15.3767 20.5991 15.4454 20.5132 15.5571C20.4659 15.6216 20.3714 15.7161 20.3069 15.7634L20.1909 15.8536H10.9999H1.80886L1.69285 15.7634C1.62839 15.7161 1.53386 15.6216 1.4866 15.5571C1.40066 15.4454 1.39636 15.3767 1.38347 13.9028L1.37058 12.3688L1.55964 12.3216C2.13543 12.1669 2.67254 11.8575 3.08933 11.445C3.90144 10.6372 4.27097 9.48135 4.06472 8.38994C3.81121 7.0708 2.84011 6.02236 1.55964 5.67861L1.37488 5.63135V4.16182C1.37488 2.63643 1.38347 2.5376 1.55964 2.34424C1.77019 2.1165 1.21589 2.12939 11.0514 2.13799L20.1909 2.14658L20.3069 2.23682Z" fill="#EB5757"/>
<path d="M12.3363 3.47437C10.7551 7.68101 8.33592 14.1478 8.32733 14.1951C8.31014 14.2638 9.53475 14.7408 9.58202 14.6849C9.5992 14.6677 10.523 12.2228 11.6359 9.25796C12.7488 6.29312 13.6683 3.83531 13.6812 3.80093C13.7027 3.74937 13.5652 3.68062 13.0625 3.49585L12.418 3.25523L12.3363 3.47437Z" fill="#EB5757"/>
<path d="M7.41201 5.13728C6.58271 5.25759 5.84795 6.00954 5.71474 6.86892C5.56435 7.84861 6.1874 8.83689 7.13701 9.13337C7.44638 9.2279 7.95771 9.24079 8.27138 9.15486C9.16943 8.91423 9.79678 8.10212 9.79678 7.17829C9.79248 5.89783 8.68818 4.95251 7.41201 5.13728ZM8.09951 6.58962C8.16826 6.62829 8.27138 6.73142 8.32724 6.81306C8.41318 6.93337 8.42607 7.00212 8.41318 7.19978C8.3831 7.60369 8.12959 7.84001 7.72138 7.84001C7.47217 7.84001 7.27021 7.70251 7.14131 7.4447C7.00381 7.174 7.03818 6.95056 7.24873 6.71853C7.48506 6.46072 7.79443 6.41345 8.09951 6.58962Z" fill="#EB5757"/>
<path d="M14.3424 9.43419C13.8654 9.5459 13.2682 10.0143 13.049 10.444C12.8514 10.8307 12.7912 11.1229 12.8127 11.5611C12.8299 11.9049 12.8557 12.0037 12.9889 12.283C13.4959 13.3572 14.7076 13.7869 15.7604 13.2713C16.551 12.8846 17.0237 11.9865 16.8862 11.1315C16.7615 10.358 16.1987 9.6963 15.4639 9.46856C15.1846 9.38262 14.6346 9.36544 14.3424 9.43419ZM15.2147 10.8607C15.4252 10.9982 15.5713 11.3119 15.5326 11.5397C15.4682 11.9178 15.0557 12.1885 14.6904 12.094C14.2565 11.9779 14.0545 11.5311 14.2479 11.1186C14.4112 10.7791 14.8967 10.6502 15.2147 10.8607Z" fill="#EB5757"/>
</svg>
