<svg width="28" height="24" viewBox="0 0 28 24" fill="none" xmlns="http://www.w3.org/2000/svg">
<path d="M22.0003 5.33333H26.0003C26.3539 5.33333 26.6931 5.47381 26.9431 5.72386C27.1932 5.97391 27.3337 6.31305 27.3337 6.66667V22.6667C27.3337 23.0203 27.1932 23.3594 26.9431 23.6095C26.6931 23.8595 26.3539 24 26.0003 24H2.00033C1.6467 24 1.30756 23.8595 1.05752 23.6095C0.807468 23.3594 0.666992 23.0203 0.666992 22.6667V1.33333C0.666992 0.979711 0.807468 0.640573 1.05752 0.390524C1.30756 0.140476 1.6467 0 2.00033 0H22.0003V5.33333ZM3.33366 8V21.3333H24.667V8H3.33366ZM3.33366 2.66667V5.33333H19.3337V2.66667H3.33366ZM18.0003 13.3333H22.0003V16H18.0003V13.3333Z" fill="#828282"/>
</svg>
