<svg width="26" height="26" viewBox="0 0 26 26" fill="none" xmlns="http://www.w3.org/2000/svg">
<path d="M0.5 23H25.5V25.5H0.5V23ZM3 13H5.5V21.75H3V13ZM9.25 13H11.75V21.75H9.25V13ZM14.25 13H16.75V21.75H14.25V13ZM20.5 13H23V21.75H20.5V13ZM0.5 6.75L13 0.5L25.5 6.75V11.75H0.5V6.75ZM13 8C13.3315 8 13.6495 7.8683 13.8839 7.63388C14.1183 7.39946 14.25 7.08152 14.25 6.75C14.25 6.41848 14.1183 6.10054 13.8839 5.86612C13.6495 5.6317 13.3315 5.5 13 5.5C12.6685 5.5 12.3505 5.6317 12.1161 5.86612C11.8817 6.10054 11.75 6.41848 11.75 6.75C11.75 7.08152 11.8817 7.39946 12.1161 7.63388C12.3505 7.8683 12.6685 8 13 8Z" fill="#4F4F4F"/>
</svg>
