<svg width="26" height="26" viewBox="0 0 26 26" fill="none" xmlns="http://www.w3.org/2000/svg">
<path d="M12.7258 0.070961C12.5023 0.197914 12.4719 0.324867 12.4668 1.17291V1.9651L10.0191 2.6151C7.89141 3.18385 7.54609 3.29049 7.4293 3.40729C7.33789 3.4987 7.28711 3.60026 7.28711 3.69674C7.28711 3.77799 7.85078 5.94635 8.53633 8.50573L9.78555 13.1674L8.70899 14.244L7.62734 15.3256L7.48008 15.153C7.39883 15.0616 7.20078 14.9194 7.04336 14.8432L6.75391 14.701H3.93555C1.17813 14.701 1.11211 14.701 0.883594 14.8077C0.548438 14.9651 0.304688 15.2038 0.142188 15.5288L0 15.8182V20.3378C0 24.8268 0 24.8573 0.106641 25.0909C0.264063 25.426 0.502734 25.6698 0.827734 25.8323L1.11719 25.9745H3.93555H6.75391L7.04336 25.8323C7.36836 25.6749 7.61211 25.421 7.7543 25.101C7.80508 24.9792 7.86094 24.8827 7.87617 24.8827C7.88633 24.8827 8.08438 25.0401 8.30781 25.2381C8.53125 25.4311 8.83594 25.6495 8.97813 25.7155C9.59258 26.0151 9.1457 25.9999 17.7125 25.9999C26.259 25.9999 25.7816 26.0151 25.9137 25.7206C26 25.5276 26 0.472132 25.9137 0.279163C25.7816 -0.0153675 26.127 -0.000133514 19.2105 -0.000133514C14.0258 0.00494576 12.8273 0.0151005 12.7258 0.070961ZM24.959 12.9999V24.9842H23.1512C21.45 24.9842 21.3434 24.9792 21.3789 24.8928C21.5109 24.5526 21.5109 23.994 21.3789 23.6589C21.3535 23.5928 21.3992 23.5725 21.648 23.5471C22.2727 23.4811 22.8008 23.1053 23.0598 22.5315C23.1766 22.2725 23.202 22.1456 23.202 21.8358C23.202 21.5971 23.1715 21.3839 23.1207 21.2671L23.0344 21.0792L23.3086 20.9522C23.6539 20.7948 23.9688 20.4799 24.1414 20.1143C24.2531 19.8756 24.2734 19.7589 24.2734 19.3983C24.2734 19.0124 24.2531 18.926 24.1109 18.6315L23.9434 18.2964V15.0159V11.7354L23.8266 11.6034C23.5676 11.2987 23.0902 11.4206 22.9785 11.8217C22.948 11.9385 22.9277 13.0608 22.9277 14.8534V17.7022L22.75 17.6819C22.6535 17.6717 22.5723 17.6565 22.5723 17.6514C22.5723 17.6514 22.6078 17.5346 22.6484 17.3975C22.75 17.0624 22.7449 16.8339 22.623 16.4378C22.491 16.0163 22.1355 15.6049 21.7242 15.4018C21.4703 15.2799 21.3637 15.2596 20.8406 15.2444L20.2414 15.2241L20.5309 15.0362C21.3332 14.5131 21.7699 13.5432 21.6176 12.6342C21.4348 11.5831 20.6375 10.7858 19.5863 10.603C18.0172 10.3339 16.5598 11.7913 16.8238 13.3655C16.9406 14.0612 17.3367 14.6604 17.9207 15.0413L18.2203 15.2342H16.8695H15.5137V10.41C15.5137 5.86002 15.5188 5.58073 15.6051 5.55534C16.4125 5.28112 17.032 4.6819 17.2453 3.97096L17.3063 3.75768H19.2207H21.1352L21.1961 3.97096C21.4094 4.6819 22.0289 5.28112 22.8414 5.55534C22.9176 5.58073 22.9277 5.66198 22.9277 6.33229C22.9277 7.42409 23.0191 7.64244 23.4711 7.64244C23.659 7.64244 23.7199 7.61705 23.8215 7.50026C23.9434 7.35807 23.9434 7.35299 23.9434 6.13932V4.91549L23.7961 4.76823C23.6895 4.66158 23.598 4.62096 23.4762 4.62096C22.75 4.62096 22.1965 4.08268 22.0898 3.28541C22.0695 3.14323 22.0086 2.99088 21.9375 2.90455L21.8207 2.76744H19.2207H16.6207L16.5039 2.90455C16.4328 2.99088 16.3719 3.14323 16.3516 3.28541C16.2449 4.08268 15.6914 4.62096 14.9652 4.62096C14.8434 4.62096 14.752 4.66158 14.6453 4.76823L14.498 4.91549V10.0749V15.2342H13.9902H13.4824V8.12487V1.01549H19.2207H24.959V12.9999ZM12.4668 3.95573V4.91549L12.2586 4.95104C12.1469 4.97135 11.9945 5.03737 11.9184 5.10338C11.7863 5.22018 11.7813 5.23541 11.7813 5.79909C11.7813 6.32721 11.7711 6.38815 11.6441 6.60143C11.4563 6.92135 11.2734 7.08385 10.918 7.23619C10.5727 7.38854 10.4406 7.52565 10.4355 7.73893C10.4355 7.84049 12.1418 14.2897 12.3957 15.1428C12.4211 15.2241 12.3754 15.2342 11.9133 15.2342H11.4055L11.3547 15.0413C11.3293 14.9397 11.2125 14.4878 11.0957 14.0409C10.984 13.594 10.8672 13.1776 10.8418 13.1116C10.791 12.9897 8.47539 4.37721 8.44492 4.1944C8.42969 4.10807 8.60742 4.05221 10.0039 3.67643C11.3344 3.31588 12.4008 3.02135 12.4566 3.00104C12.4617 2.99596 12.4668 3.4276 12.4668 3.95573ZM12.4617 9.35377V11.451L12.0047 9.77526L11.5426 8.09948L11.6645 8.02838C11.7305 7.98776 11.9285 7.79987 12.1113 7.61198C12.2941 7.42409 12.4465 7.27174 12.4566 7.26666C12.4617 7.26159 12.4668 8.20612 12.4617 9.35377ZM19.825 11.7253C20.1246 11.8827 20.3023 12.0553 20.4648 12.3499C20.5918 12.5784 20.6121 12.6749 20.6121 12.9999C20.6121 13.3249 20.5918 13.4214 20.4648 13.6499C20.1906 14.1577 19.7945 14.3913 19.2207 14.3913C18.6469 14.3913 18.2508 14.1577 17.9766 13.6499C17.8496 13.4214 17.8293 13.3249 17.8293 12.9999C17.8293 12.6038 17.8852 12.4311 18.1391 12.101C18.2711 11.9182 18.6316 11.6897 18.8805 11.6237C19.1242 11.5628 19.6016 11.6135 19.825 11.7253ZM10.334 15.1581C10.5117 15.8538 10.5625 15.9909 10.6945 16.1077L10.8418 16.2499H15.9859C20.7797 16.2499 21.1352 16.2549 21.2977 16.3413C21.5617 16.4733 21.6836 16.6714 21.6836 16.9608C21.6836 17.2503 21.5617 17.4483 21.2977 17.5803C21.1402 17.6616 20.8965 17.6717 18.4184 17.6717H15.7066L15.534 17.8444C15.4121 17.9663 15.3613 18.0628 15.3613 18.1796C15.3613 18.2964 15.4121 18.3878 15.534 18.5147L15.7066 18.6874H19.2309C22.6535 18.6874 22.7551 18.6924 22.9176 18.7889C23.3949 19.0784 23.3949 19.7182 22.9176 20.0077C22.7551 20.1042 22.6535 20.1092 19.2309 20.1092H15.7066L15.534 20.2819C15.3004 20.5155 15.3004 20.7186 15.534 20.9522L15.7066 21.1249H18.6723C21.9375 21.1249 21.8461 21.1147 22.0848 21.4448C22.232 21.6428 22.232 22.0288 22.0848 22.2268C21.8461 22.5569 21.9375 22.5467 18.6723 22.5467H15.7066L15.534 22.7194C15.407 22.8413 15.3613 22.9378 15.3613 23.0546C15.3613 23.1714 15.407 23.2678 15.534 23.3897L15.7066 23.5624H17.7938C20.0941 23.5624 20.1246 23.5674 20.3379 23.8721C20.602 24.2428 20.4191 24.8116 19.9926 24.9335C19.8605 24.9741 18.2762 24.9842 14.7773 24.9741C9.80078 24.9589 9.75 24.9589 9.52149 24.8522C9.39453 24.7964 8.97813 24.4764 8.59727 24.1413L7.89648 23.5421V20.0331V16.5292L8.99844 15.4272C9.60273 14.8178 10.1055 14.3303 10.1105 14.3354C10.1156 14.3405 10.2172 14.7112 10.334 15.1581ZM3.42773 18.662C3.42773 21.846 3.42773 21.851 3.67656 21.9881C3.80352 22.0542 4.06758 22.0542 4.19453 21.9881C4.44336 21.851 4.44336 21.846 4.44336 18.662V15.6913H5.45898C6.55586 15.6913 6.68789 15.7167 6.80977 15.9503C6.91641 16.1635 6.91641 24.512 6.80977 24.7253C6.67266 24.9842 6.65742 24.9842 3.93555 24.9842C1.21367 24.9842 1.19844 24.9842 1.06133 24.7253C0.959766 24.5221 0.959766 16.1381 1.06133 15.9503C1.19336 15.7167 1.3 15.6964 2.40195 15.6913H3.42773V18.662Z" fill="#4F4F4F"/>
</svg>
