<svg width="20" height="18" viewBox="0 0 20 18" fill="none" xmlns="http://www.w3.org/2000/svg">
<path d="M1 0H19C19.2652 0 19.5196 0.105357 19.7071 0.292893C19.8946 0.48043 20 0.734784 20 1V17C20 17.2652 19.8946 17.5196 19.7071 17.7071C19.5196 17.8946 19.2652 18 19 18H1C0.734784 18 0.48043 17.8946 0.292893 17.7071C0.105357 17.5196 0 17.2652 0 17V1C0 0.734784 0.105357 0.48043 0.292893 0.292893C0.48043 0.105357 0.734784 0 1 0ZM18 11H14.584C14.1949 11.8921 13.5539 12.6514 12.7397 13.1846C11.9254 13.7178 10.9733 14.0018 10 14.0018C9.0267 14.0018 8.07456 13.7178 7.26031 13.1846C6.44606 12.6514 5.80509 11.8921 5.416 11H2V16H18V11ZM18 9V2H2V9H7C7 9.79565 7.31607 10.5587 7.87868 11.1213C8.44129 11.6839 9.20435 12 10 12C10.7956 12 11.5587 11.6839 12.1213 11.1213C12.6839 10.5587 13 9.79565 13 9H18Z" fill="#4F4F4F"/>
</svg>
