<svg width="20" height="18" viewBox="0 0 20 18" fill="none" xmlns="http://www.w3.org/2000/svg">
<path d="M8.0077 2.58333L6.17436 4.41667H2.66536V15.4167H17.332V4.41667H13.823L11.9897 2.58333H8.0077ZM7.2487 0.75H12.7487L14.582 2.58333H18.2487C18.4918 2.58333 18.725 2.67991 18.8969 2.85182C19.0688 3.02373 19.1654 3.25688 19.1654 3.5V16.3333C19.1654 16.5764 19.0688 16.8096 18.8969 16.9815C18.725 17.1534 18.4918 17.25 18.2487 17.25H1.7487C1.50558 17.25 1.27242 17.1534 1.10052 16.9815C0.928608 16.8096 0.832031 16.5764 0.832031 16.3333V3.5C0.832031 3.25688 0.928608 3.02373 1.10052 2.85182C1.27242 2.67991 1.50558 2.58333 1.7487 2.58333H5.41536L7.2487 0.75ZM9.9987 14.5C8.66156 14.5 7.3792 13.9688 6.4337 13.0233C5.4882 12.0778 4.95703 10.7955 4.95703 9.45833C4.95703 8.1212 5.4882 6.83883 6.4337 5.89334C7.3792 4.94784 8.66156 4.41667 9.9987 4.41667C11.3358 4.41667 12.6182 4.94784 13.5637 5.89334C14.5092 6.83883 15.0404 8.1212 15.0404 9.45833C15.0404 10.7955 14.5092 12.0778 13.5637 13.0233C12.6182 13.9688 11.3358 14.5 9.9987 14.5ZM9.9987 12.6667C10.8496 12.6667 11.6657 12.3286 12.2673 11.727C12.869 11.1253 13.207 10.3092 13.207 9.45833C13.207 8.60743 12.869 7.79138 12.2673 7.1897C11.6657 6.58802 10.8496 6.25 9.9987 6.25C9.1478 6.25 8.33174 6.58802 7.73006 7.1897C7.12838 7.79138 6.79036 8.60743 6.79036 9.45833C6.79036 10.3092 7.12838 11.1253 7.73006 11.727C8.33174 12.3286 9.1478 12.6667 9.9987 12.6667Z" fill="#F2F2F2"/>
</svg>
