<svg width="18" height="16" viewBox="0 0 18 16" fill="none" xmlns="http://www.w3.org/2000/svg">
<path d="M5.33333 0.666829H17.25V2.50016H5.33333V0.666829ZM2.125 2.9585C1.76033 2.9585 1.41059 2.81363 1.15273 2.55577C0.894866 2.29791 0.75 1.94817 0.75 1.5835C0.75 1.21882 0.894866 0.869087 1.15273 0.611224C1.41059 0.353362 1.76033 0.208496 2.125 0.208496C2.48967 0.208496 2.83941 0.353362 3.09727 0.611224C3.35513 0.869087 3.5 1.21882 3.5 1.5835C3.5 1.94817 3.35513 2.29791 3.09727 2.55577C2.83941 2.81363 2.48967 2.9585 2.125 2.9585ZM2.125 9.37516C1.76033 9.37516 1.41059 9.2303 1.15273 8.97243C0.894866 8.71457 0.75 8.36484 0.75 8.00016C0.75 7.63549 0.894866 7.28575 1.15273 7.02789C1.41059 6.77003 1.76033 6.62516 2.125 6.62516C2.48967 6.62516 2.83941 6.77003 3.09727 7.02789C3.35513 7.28575 3.5 7.63549 3.5 8.00016C3.5 8.36484 3.35513 8.71457 3.09727 8.97243C2.83941 9.2303 2.48967 9.37516 2.125 9.37516ZM2.125 15.7002C1.76033 15.7002 1.41059 15.5553 1.15273 15.2974C0.894866 15.0396 0.75 14.6898 0.75 14.3252C0.75 13.9605 0.894866 13.6108 1.15273 13.3529C1.41059 13.095 1.76033 12.9502 2.125 12.9502C2.48967 12.9502 2.83941 13.095 3.09727 13.3529C3.35513 13.6108 3.5 13.9605 3.5 14.3252C3.5 14.6898 3.35513 15.0396 3.09727 15.2974C2.83941 15.5553 2.48967 15.7002 2.125 15.7002ZM5.33333 7.0835H17.25V8.91683H5.33333V7.0835ZM5.33333 13.5002H17.25V15.3335H5.33333V13.5002Z" fill="#5B8E19"/>
</svg>
