<svg width="21" height="18" viewBox="0 0 21 18" fill="none" xmlns="http://www.w3.org/2000/svg">
<path d="M14.2995 2.54999C13.5395 2.54987 12.8098 2.84811 12.2674 3.38056C11.7251 3.913 11.4134 4.63709 11.3995 5.39699L11.3715 6.97199C11.3699 7.05656 11.3504 7.13982 11.3143 7.21632C11.2782 7.29281 11.2264 7.36082 11.1622 7.41587C11.098 7.47092 11.0228 7.51178 10.9417 7.53575C10.8606 7.55973 10.7754 7.56629 10.6915 7.55499L9.13053 7.34299C7.07653 7.06299 5.10853 6.11699 3.22053 4.54399C2.62253 7.85399 3.79053 10.147 6.60353 11.916L8.35053 13.014C8.43354 13.0662 8.5025 13.1379 8.55138 13.2228C8.60026 13.3078 8.62757 13.4035 8.63093 13.5015C8.63428 13.5995 8.61358 13.6968 8.57062 13.7849C8.52767 13.873 8.46378 13.9493 8.38453 14.007L6.79253 15.17C7.73953 15.229 8.63853 15.187 9.38453 15.039C14.1025 14.097 17.2395 10.547 17.2395 4.69099C17.2395 4.21299 16.2275 2.54999 14.2995 2.54999ZM9.39953 5.35999C9.41699 4.39604 9.71842 3.45866 10.2661 2.66521C10.8138 1.87177 11.5833 1.25751 12.4784 0.899359C13.3736 0.541207 14.3544 0.455072 15.2983 0.65174C16.2421 0.848407 17.107 1.31914 17.7845 2.00499C18.4955 1.99999 19.1005 2.17999 20.4535 1.35999C20.1185 2.99999 19.9535 3.71199 19.2395 4.69099C19.2395 12.333 14.5425 16.049 9.77653 17C6.50853 17.652 1.75653 16.581 0.394531 15.159C1.08853 15.105 3.90853 14.802 5.53853 13.609C4.15953 12.7 -1.32947 9.46999 2.27753 0.785992C3.97053 2.76299 5.68753 4.10899 7.42753 4.82299C8.58553 5.29799 8.86953 5.28799 9.40053 5.36099L9.39953 5.35999Z" fill="#F2F2F2"/>
</svg>
