<svg width="22" height="22" viewBox="0 0 22 22" fill="none" xmlns="http://www.w3.org/2000/svg">
<path d="M4.00008 5.41408L0.75708 2.17208L2.17208 0.75708L5.41408 4.00008H20.6561C20.8119 4.00007 20.9657 4.03649 21.1049 4.10645C21.2442 4.1764 21.3652 4.27794 21.4583 4.40298C21.5514 4.52801 21.6139 4.67306 21.641 4.82657C21.668 4.98007 21.6588 5.13777 21.6141 5.28708L19.2141 13.2871C19.1523 13.4932 19.0258 13.6738 18.8532 13.8023C18.6806 13.9307 18.4712 14.0001 18.2561 14.0001H6.00008V16.0001H17.0001V18.0001H5.00008C4.73486 18.0001 4.48051 17.8947 4.29297 17.7072C4.10544 17.5197 4.00008 17.2653 4.00008 17.0001V5.41408ZM6.00008 6.00008V12.0001H17.5121L19.3121 6.00008H6.00008ZM5.50008 22.0001C5.10226 22.0001 4.72072 21.842 4.43942 21.5607C4.15812 21.2794 4.00008 20.8979 4.00008 20.5001C4.00008 20.1023 4.15812 19.7207 4.43942 19.4394C4.72072 19.1581 5.10226 19.0001 5.50008 19.0001C5.8979 19.0001 6.27944 19.1581 6.56074 19.4394C6.84204 19.7207 7.00008 20.1023 7.00008 20.5001C7.00008 20.8979 6.84204 21.2794 6.56074 21.5607C6.27944 21.842 5.8979 22.0001 5.50008 22.0001ZM17.5001 22.0001C17.1023 22.0001 16.7207 21.842 16.4394 21.5607C16.1581 21.2794 16.0001 20.8979 16.0001 20.5001C16.0001 20.1023 16.1581 19.7207 16.4394 19.4394C16.7207 19.1581 17.1023 19.0001 17.5001 19.0001C17.8979 19.0001 18.2794 19.1581 18.5607 19.4394C18.842 19.7207 19.0001 20.1023 19.0001 20.5001C19.0001 20.8979 18.842 21.2794 18.5607 21.5607C18.2794 21.842 17.8979 22.0001 17.5001 22.0001Z" fill="#4F4F4F"/>
</svg>
