<svg width="43" height="39" viewBox="0 0 43 39" fill="none" xmlns="http://www.w3.org/2000/svg">
<path d="M2.375 0.375H40.625C41.1886 0.375 41.7291 0.598883 42.1276 0.997398C42.5261 1.39591 42.75 1.93641 42.75 2.5V36.5C42.75 37.0636 42.5261 37.6041 42.1276 38.0026C41.7291 38.4011 41.1886 38.625 40.625 38.625H2.375C1.81141 38.625 1.27091 38.4011 0.872398 38.0026C0.473883 37.6041 0.25 37.0636 0.25 36.5V2.5C0.25 1.93641 0.473883 1.39591 0.872398 0.997398C1.27091 0.598883 1.81141 0.375 2.375 0.375ZM38.5 23.75H31.241C30.4142 25.6458 29.0521 27.2591 27.3218 28.3922C25.5916 29.5252 23.5683 30.1287 21.5 30.1287C19.4317 30.1287 17.4084 29.5252 15.6782 28.3922C13.9479 27.2591 12.5858 25.6458 11.759 23.75H4.5V34.375H38.5V23.75ZM38.5 19.5V4.625H4.5V19.5H15.125C15.125 21.1908 15.7966 22.8123 16.9922 24.0078C18.1877 25.2034 19.8092 25.875 21.5 25.875C23.1908 25.875 24.8123 25.2034 26.0078 24.0078C27.2034 22.8123 27.875 21.1908 27.875 19.5H38.5Z" fill="#BDBDBD"/>
</svg>
