<svg width="20" height="20" viewBox="0 0 20 20" fill="none" xmlns="http://www.w3.org/2000/svg">
<path d="M4 17H1C0.734784 17 0.48043 16.8946 0.292893 16.7071C0.105357 16.5196 0 16.2652 0 16V6C0 5.73478 0.105357 5.48043 0.292893 5.29289C0.48043 5.10536 0.734784 5 1 5H4V1C4 0.734784 4.10536 0.48043 4.29289 0.292893C4.48043 0.105357 4.73478 0 5 0H15C15.2652 0 15.5196 0.105357 15.7071 0.292893C15.8946 0.48043 16 0.734784 16 1V5H19C19.2652 5 19.5196 5.10536 19.7071 5.29289C19.8946 5.48043 20 5.73478 20 6V16C20 16.2652 19.8946 16.5196 19.7071 16.7071C19.5196 16.8946 19.2652 17 19 17H16V19C16 19.2652 15.8946 19.5196 15.7071 19.7071C15.5196 19.8946 15.2652 20 15 20H5C4.73478 20 4.48043 19.8946 4.29289 19.7071C4.10536 19.5196 4 19.2652 4 19V17ZM4 15V14C4 13.7348 4.10536 13.4804 4.29289 13.2929C4.48043 13.1054 4.73478 13 5 13H15C15.2652 13 15.5196 13.1054 15.7071 13.2929C15.8946 13.4804 16 13.7348 16 14V15H18V7H2V15H4ZM6 2V5H14V2H6ZM6 15V18H14V15H6ZM3 8H6V10H3V8Z" fill="#5B8E19"/>
</svg>
