<svg width="48" height="50" viewBox="0 0 48 50" fill="none" xmlns="http://www.w3.org/2000/svg">
<path d="M38.819 42H6.00052C5.79159 42 5.58679 41.9418 5.40907 41.832C5.23134 41.7222 5.08772 41.565 4.99428 41.3781C4.90085 41.1913 4.8613 40.9821 4.88006 40.774C4.89882 40.5659 4.97516 40.3672 5.10052 40.2L6.00052 39.0008V19.5C6.00052 16.5075 6.72952 13.686 8.02327 11.2043L0.134766 3.31803L3.31852 0.134277L47.8663 44.6843L44.6825 47.8658L38.819 42ZM11.4185 14.5995C10.8102 16.1616 10.4988 17.8236 10.5005 19.5V37.5H34.319L11.4185 14.5995ZM42.0005 32.5185L37.5005 28.0185V19.5C37.5009 17.1323 36.8786 14.8061 35.696 12.7548C34.5134 10.7035 32.8121 8.99938 30.7628 7.81335C28.7135 6.62732 26.3884 6.00112 24.0206 5.9976C21.6529 5.99407 19.3258 6.61335 17.273 7.79328L14.0105 4.52628C16.7212 2.71776 19.8719 1.67901 23.1267 1.52081C26.3814 1.36261 29.618 2.09091 32.4913 3.62802C35.3646 5.16512 37.7667 7.45337 39.4414 10.2487C41.1161 13.044 42.0006 16.2414 42.0005 19.5V32.5185ZM18.3755 44.25H29.6255C29.6255 45.7419 29.0329 47.1726 27.978 48.2275C26.9231 49.2824 25.4924 49.875 24.0005 49.875C22.5087 49.875 21.0779 49.2824 20.023 48.2275C18.9681 47.1726 18.3755 45.7419 18.3755 44.25V44.25Z" fill="#BDBDBD"/>
</svg>
