<svg width="18" height="18" viewBox="0 0 18 18" fill="none" xmlns="http://www.w3.org/2000/svg">
<path d="M17.25 16.3333C17.25 16.5765 17.1534 16.8096 16.9815 16.9815C16.8096 17.1534 16.5764 17.25 16.3333 17.25H1.66667C1.42355 17.25 1.19039 17.1534 1.01849 16.9815C0.846577 16.8096 0.75 16.5765 0.75 16.3333V6.69917C0.749903 6.55948 0.781732 6.42162 0.843056 6.29611C0.90438 6.17061 0.993577 6.06077 1.10383 5.97501L8.43717 0.271505C8.59808 0.14633 8.79613 0.0783691 9 0.0783691C9.20387 0.0783691 9.40192 0.14633 9.56283 0.271505L16.8962 5.97501C17.0064 6.06077 17.0956 6.17061 17.1569 6.29611C17.2183 6.42162 17.2501 6.55948 17.25 6.69917V16.3333ZM15.4167 15.4167V7.1465L9 2.15617L2.58333 7.1465V15.4167H15.4167Z" fill="#4F4F4F"/>
</svg>
