<svg width="19" height="22" viewBox="0 0 19 22" fill="none" xmlns="http://www.w3.org/2000/svg">
<path d="M11.1202 16.023L6.92121 13.733C6.373 14.319 5.66119 14.7266 4.87828 14.9028C4.09537 15.0791 3.27756 15.0157 2.53113 14.721C1.7847 14.4263 1.14417 13.9139 0.692774 13.2504C0.241381 12.5869 0 11.803 0 11.0005C0 10.198 0.241381 9.41402 0.692774 8.75051C1.14417 8.08701 1.7847 7.57461 2.53113 7.27992C3.27756 6.98523 4.09537 6.92187 4.87828 7.09807C5.66119 7.27428 6.373 7.6819 6.92121 8.26796L11.1212 5.97796C10.8828 5.03403 10.9968 4.03555 11.4418 3.16966C11.8869 2.30378 12.6325 1.62994 13.5389 1.27446C14.4452 0.918981 15.4501 0.906264 16.3652 1.23869C17.2803 1.57112 18.0427 2.22588 18.5095 3.08022C18.9764 3.93457 19.1156 4.92985 18.9011 5.8795C18.6866 6.82916 18.1332 7.668 17.3444 8.23877C16.5557 8.80954 15.5859 9.07307 14.6168 8.97995C13.6477 8.88684 12.7458 8.44347 12.0802 7.73296L7.88021 10.023C8.04141 10.6643 8.04141 11.3356 7.88021 11.977L12.0792 14.267C12.7448 13.5564 13.6467 13.1131 14.6158 13.02C15.5849 12.9268 16.5547 13.1904 17.3434 13.7611C18.1322 14.3319 18.6856 15.1708 18.9001 16.1204C19.1146 17.0701 18.9754 18.0654 18.5085 18.9197C18.0417 19.774 17.2793 20.4288 16.3642 20.7612C15.4491 21.0937 14.4442 21.0809 13.5379 20.7255C12.6315 20.37 11.8859 19.6961 11.4408 18.8303C10.9958 17.9644 10.8818 16.9659 11.1202 16.022V16.023ZM4.00021 13C4.53064 13 5.03935 12.7892 5.41442 12.4142C5.78949 12.0391 6.00021 11.5304 6.00021 11C6.00021 10.4695 5.78949 9.96082 5.41442 9.58575C5.03935 9.21067 4.53064 8.99996 4.00021 8.99996C3.46977 8.99996 2.96107 9.21067 2.58599 9.58575C2.21092 9.96082 2.00021 10.4695 2.00021 11C2.00021 11.5304 2.21092 12.0391 2.58599 12.4142C2.96107 12.7892 3.46977 13 4.00021 13ZM15.0002 6.99996C15.5306 6.99996 16.0393 6.78925 16.4144 6.41417C16.7895 6.0391 17.0002 5.53039 17.0002 4.99996C17.0002 4.46953 16.7895 3.96082 16.4144 3.58575C16.0393 3.21067 15.5306 2.99996 15.0002 2.99996C14.4698 2.99996 13.9611 3.21067 13.586 3.58575C13.2109 3.96082 13.0002 4.46953 13.0002 4.99996C13.0002 5.53039 13.2109 6.0391 13.586 6.41417C13.9611 6.78925 14.4698 6.99996 15.0002 6.99996ZM15.0002 19C15.5306 19 16.0393 18.7892 16.4144 18.4142C16.7895 18.0391 17.0002 17.5304 17.0002 17C17.0002 16.4695 16.7895 15.9608 16.4144 15.5857C16.0393 15.2107 15.5306 15 15.0002 15C14.4698 15 13.9611 15.2107 13.586 15.5857C13.2109 15.9608 13.0002 16.4695 13.0002 17C13.0002 17.5304 13.2109 18.0391 13.586 18.4142C13.9611 18.7892 14.4698 19 15.0002 19Z" fill="#828282"/>
</svg>
