<svg width="70" height="100" viewBox="0 0 70 100" fill="none" xmlns="http://www.w3.org/2000/svg">
<path d="M41.2279 34.9167C41.2006 34.9167 41.1245 34.9175 41.0532 34.9186C54.2022 37.1807 65.0434 47.6349 67.1372 61.5323C69.7497 78.875 57.7662 95.1105 40.4231 97.723C23.08 100.336 6.84487 88.352 4.23196 71.009C2.42536 59.0171 7.5985 47.5565 16.6955 40.7609C17.2158 39.2782 12.7751 42.6543 13.8629 41.5282C13.4881 41.7385 14.5491 41.1091 14.1812 41.3342C10.4634 43.6121 11.1534 42.7194 8.55258 46.2428C5.95142 49.7666 4.08457 53.6951 3.00319 57.9191C1.88353 62.2927 1.6596 66.7929 2.33784 71.2943C3.01569 75.7956 4.55555 80.0298 6.91421 83.8799C9.19216 87.5976 12.1336 90.8016 15.657 93.4024C19.1808 96.0036 23.1088 97.8704 27.3332 98.9518C31.7069 100.071 36.2071 100.295 40.708 99.6175C45.2098 98.9393 49.444 97.3994 53.294 95.0408C57.0118 92.7632 60.2158 89.8214 62.8166 86.298C65.4177 82.7742 67.2846 78.8458 68.3659 74.6218C69.4856 70.2481 69.7978 65.7339 69.0313 61.2469C65.0089 37.6884 41.3832 34.9175 41.2279 34.9167Z" fill="#8C4D02"/>
<path d="M13.0232 42.9799L12.2256 42.3434L12.445 43.0762L11.752 42.415C11.8304 42.3328 20.5186 34.6983 19.7881 28.4468L20.2617 28.3756C21.2343 34.8328 13.3699 42.6169 13.0232 42.9799Z" fill="#8C4D02"/>
<path d="M14.2876 31.2629L13.8958 31.5914C14.5448 32.4898 15.1344 33.8467 15.2462 34.6723C15.6747 37.8373 13.1217 40.6635 10.123 44.1672C10.7683 44.2521 11.5322 44.465 12.1657 44.6499C13.9844 42.0146 16.0165 38.3689 15.8376 35.4339C15.7554 34.0865 15.1173 32.4034 14.2876 31.2629Z" fill="#8C4D02"/>
<path d="M16.6943 40.761C14.3644 42.6809 14.1113 41.249 14.1113 41.249C14.3046 40.9611 20.7887 38.2087 24.5269 29.7206L25.0013 29.724C24.0761 31.7837 22.2695 36.8477 16.6943 40.761Z" fill="#8C4D02"/>
<path d="M37.168 27.8623C37.168 27.8623 45.6773 26.5619 52.8306 14.4208C52.7859 14.5379 51.7026 17.3179 49.2326 20.3824C46.9467 23.2189 42.9981 26.8192 37.168 27.8623Z" fill="white"/>
<path d="M13.7285 13.0342C13.7304 12.8152 13.7925 7.61438 15.4915 3.06945C15.4915 3.06945 14.6098 7.71024 13.7285 13.0342Z" fill="white"/>
<path d="M25.1462 15.611C25.3352 21.2434 22.9201 26.3369 21.3484 28.8957C21.0919 29.3128 22.0918 24.1291 19.391 15.4382C19.391 15.4382 20.7039 24.2124 20.3379 29.8694L19.7499 30.4185C19.7499 30.4185 13.0986 24.1984 12.3321 15.6758C11.566 7.15316 15.0731 0.000259399 15.0731 0.000259399C15.0731 0.000259399 24.8014 5.34352 25.1462 15.611Z" fill="#5B8E19"/>
<path d="M43.9001 27.4206C38.1492 30.1684 29.6004 31.0531 25.6375 31.4392C25.6375 31.4392 27.3918 27.7673 30.1608 24.5023C32.7869 21.4055 36.152 18.6524 36.152 18.6524C31.2626 21.1323 27.4134 25.5871 24.3193 31.2865L23.6035 31.6177C23.6035 31.6177 23.7884 23.7759 30.6886 16.2218C38.5027 7.66695 55.9822 10.2833 55.9822 10.2833C55.9822 10.2833 54.7151 22.2531 43.9001 27.4206Z" fill="#5B8E19"/>
<path d="M10.6672 23.6137C12.8413 26.4407 14.4835 30.6548 15.1481 32.7998C15.4255 33.6947 15.064 33.9043 15.064 33.9043C15.064 33.9043 12.8879 28.9558 8.92047 26.3907C8.92047 26.3907 10.8923 28.6887 12.2385 30.4112C13.5851 32.1337 14.3471 34.0581 14.3471 34.0581C12.7167 33.9395 9.27247 33.5269 6.28673 31.3891C0.640722 27.3474 0 19.051 0 19.051C0 19.051 6.62395 18.3568 10.6672 23.6137Z" fill="#5B8E19"/>
<path d="M21.2168 59.0238C21.2168 57.9291 20.357 57.1084 19.3018 57.1084C18.7547 57.1084 18.2856 57.3039 17.8946 57.6559C17.5429 58.0075 17.3868 58.4766 17.3868 59.0238C17.3868 59.5319 17.5429 60.0009 17.8946 60.3526C18.2856 60.7432 18.7547 60.9387 19.3018 60.9387C19.8099 60.9387 20.2786 60.7432 20.6306 60.3526C21.0212 60.0009 21.2168 59.5319 21.2168 59.0238ZM16.058 72.5858C17.6214 72.5858 18.2466 71.6086 18.2466 70.7098V67.5051H17.582C15.667 67.5051 13.2829 68.4038 13.2829 70.6704C13.2829 71.7651 14.1821 72.5858 16.058 72.5858ZM16.2922 59.0238C16.2922 57.9291 15.4715 57.1084 14.4162 57.1084C13.8691 57.1084 13.4 57.3039 13.0094 57.6559C12.6578 58.0075 12.4622 58.4766 12.4622 59.0238C12.4622 59.5319 12.6578 60.0009 13.0094 60.3526C13.4 60.7432 13.8691 60.9387 14.4162 60.9387C14.9243 60.9387 15.3934 60.7432 15.7454 60.3526C16.097 60.0009 16.2922 59.5319 16.2922 59.0238ZM21.2168 71.0224C21.2168 71.8037 20.9042 75.7905 16.6052 75.7905C14.0256 75.7905 10.1562 75.1653 10.1562 71.257C10.1562 67.8957 12.8139 64.2219 18.5201 64.2219C18.9111 64.2219 19.6928 64.2219 21.2168 64.5735V71.0224Z" fill="#5B8E19"/>
<path d="M27.4721 75.556C27.4721 73.172 27.3156 68.1303 27.2375 66.9966C27.6676 66.7625 28.2537 66.4499 28.5663 66.2153C29.1529 65.9024 30.2471 65.2772 30.8723 64.9646V72.3119H31.1459V75.7906H30.8333C30.7162 79.3473 29.5435 83.1386 21.1406 83.1772L22.0394 82.7472C26.0262 81.4968 27.4721 78.7217 27.4721 75.556Z" fill="#5B8E19"/>
<path d="M43.497 75.204C45.0603 75.204 46.3501 73.8748 46.3501 72.2728C46.3501 70.7481 45.0603 69.4193 43.497 69.4193C41.9336 69.4193 40.6048 70.7481 40.6048 72.2728C40.6048 73.8748 41.9336 75.204 43.497 75.204ZM30.5605 72.3115H37.283C37.4781 68.7551 40.1748 66.0194 43.5364 66.0194C46.8976 66.0194 49.6723 68.9116 49.7504 72.3115H50.1804V75.7902H48.5C47.3663 77.3535 45.5688 78.4868 43.5364 78.4868C41.4255 78.4868 39.6277 77.3535 38.4944 75.7902H30.5605V72.3115Z" fill="#5B8E19"/>
<path d="M58.4661 53.8256C57.4108 53.8256 56.5507 54.6463 56.5507 55.7406C56.5507 56.7958 57.4108 57.6556 58.4661 57.6556C59.5209 57.6556 60.381 56.7958 60.381 55.7406C60.381 54.6463 59.5209 53.8256 58.4661 53.8256ZM55.9255 49.5652C54.8309 49.5652 53.9715 50.4254 53.9715 51.4806C53.9715 52.5358 54.8309 53.3956 55.9255 53.3956C56.9808 53.3956 57.8409 52.5358 57.8409 51.4806C57.8409 50.4254 56.9808 49.5652 55.9255 49.5652ZM53.5801 53.8256C52.4862 53.8256 51.6655 54.6463 51.6655 55.7406C51.6655 56.7958 52.4862 57.6556 53.5801 57.6556C54.6748 57.6556 55.4955 56.7958 55.4955 55.7406C55.4955 54.6463 54.6748 53.8256 53.5801 53.8256ZM56.9808 72.3118C56.9417 69.8497 56.6288 65.0816 56.1991 62.3066L59.3258 60.6261C59.6384 62.7366 60.303 68.1689 60.303 72.0777C60.303 73.211 60.2249 74.6572 60.1075 75.7905H49.5547V72.3118H56.9808Z" fill="#5B8E19"/>
<path d="M20.0695 85.0804C19.9854 85.1615 19.9434 85.2627 19.9434 85.3839V85.6738H21.7132V90.246C21.7132 90.4267 21.7549 90.5544 21.8379 90.6291C21.9208 90.7037 22.047 90.7412 22.2164 90.7412H22.4979V85.6738H23.8642C23.9832 85.6738 24.0878 85.6253 24.1787 85.5287C24.2693 85.4324 24.3147 85.3388 24.3147 85.2487V84.9543H20.4439C20.2787 84.9573 20.1536 84.9993 20.0695 85.0804Z" fill="#8C4D02"/>
<path d="M26.7255 86.3278C26.3986 86.3278 26.1201 86.4323 25.8904 86.6411C25.762 86.7578 25.5559 86.6657 25.5559 86.4922V85.2301C25.5559 85.1141 25.5608 85.016 25.5582 84.9357C25.5585 84.9304 25.5597 84.9258 25.5597 84.9205C25.5597 84.8838 25.5528 84.8485 25.5434 84.8148C25.543 84.8141 25.5426 84.8129 25.5422 84.8122C25.4953 84.6523 25.349 84.5348 25.1739 84.5348C24.9981 84.5348 24.8515 84.6534 24.8049 84.8141C24.7924 84.8421 24.7852 84.8728 24.7852 84.9054V90.2649C24.7822 90.5825 24.9587 90.7412 25.3157 90.7412H25.3316C25.4426 90.7412 25.5324 90.6514 25.5324 90.5404V88.2427C25.5324 87.8627 25.6442 87.5622 25.8681 87.3413C26.0951 87.1235 26.3637 87.0143 26.6744 87.0143C27.3269 87.0204 27.6531 87.4175 27.6531 88.2052V90.2649C27.6531 90.5825 27.835 90.7412 28.1995 90.7412C28.3101 90.7412 28.4003 90.6514 28.4003 90.5404V88.1855C28.3969 86.9469 27.8388 86.3278 26.7255 86.3278Z" fill="#8C4D02"/>
<path d="M31.6318 89.2517C31.6318 89.5692 31.5598 89.7966 31.4166 89.9337C31.2696 90.0705 31.0449 90.1391 30.7422 90.1391C30.4364 90.1391 30.1958 90.0736 30.0211 89.9428C29.8464 89.8121 29.7589 89.6518 29.7589 89.462C29.7619 88.9638 30.1882 88.7148 31.0373 88.7148H31.6318V89.2517ZM30.7422 86.3046C30.2428 86.3046 29.8567 86.4013 29.5835 86.5941C29.3107 86.7874 29.1743 86.9957 29.1743 87.2201V87.5751H29.2205C29.5066 87.186 29.9654 86.9912 30.597 86.9912C30.9559 86.9882 31.2165 87.0541 31.3791 87.189C31.5413 87.3239 31.6223 87.5406 31.6223 87.8392V88.0283H31.0388C30.3879 88.0248 29.8881 88.151 29.5395 88.406C29.1906 88.661 29.0147 89.0054 29.0117 89.4389C29.0117 89.8724 29.1735 90.2119 29.4967 90.4574C29.8233 90.7029 30.2447 90.8257 30.7607 90.8257C31.2878 90.8257 31.689 90.6885 31.9653 90.4138C32.2411 90.1395 32.379 89.7697 32.379 89.3048V87.9426C32.376 87.4122 32.2278 87.0067 31.9353 86.726C31.6394 86.4452 31.2416 86.3046 30.7422 86.3046Z" fill="#8C4D02"/>
<path d="M37.5002 86.3228C37.2198 86.3228 36.9584 86.3937 36.7155 86.535C36.4726 86.6767 36.2783 86.8643 36.1316 87.0981C35.8547 86.5813 35.4235 86.3228 34.8381 86.3228C34.2527 86.3228 33.8014 86.5017 33.4835 86.8586C33.166 87.2193 33.0087 87.6604 33.0118 88.1825V90.196C33.0118 90.5593 33.1815 90.7412 33.521 90.7412H33.7593V88.2749C33.7593 87.4315 34.0844 87.0094 34.7354 87.0094C35.0434 87.0094 35.2833 87.1216 35.4545 87.3455C35.6258 87.5698 35.7114 87.8797 35.7114 88.2749V90.1948C35.7114 90.559 35.8763 90.7412 36.2067 90.7412H36.4586V88.2564C36.4586 87.8142 36.5382 87.4967 36.697 87.3038C36.8557 87.1106 37.1141 87.0124 37.4722 87.0094C38.0947 87.0124 38.4062 87.4345 38.4062 88.2749V90.1948C38.4062 90.3657 38.4513 90.4999 38.5418 90.5965C38.632 90.6927 38.7502 90.7412 38.8969 90.7412H39.1538V88.2617C39.1538 86.9692 38.6025 86.3228 37.5002 86.3228Z" fill="#8C4D02"/>
<path d="M42.3955 89.2517C42.3955 89.5692 42.3235 89.7966 42.1803 89.9337C42.0333 90.0705 41.8086 90.1391 41.5058 90.1391C41.2001 90.1391 40.9595 90.0736 40.7848 89.9428C40.6101 89.8121 40.5226 89.6518 40.5226 89.462C40.5256 88.9638 40.9519 88.7148 41.801 88.7148H42.3955V89.2517ZM41.5058 86.3046C41.0064 86.3046 40.6203 86.4013 40.3472 86.5941C40.0743 86.7874 39.9379 86.9957 39.9379 87.2201V87.5751H39.9842C40.2706 87.186 40.7291 86.9912 41.3607 86.9912C41.7195 86.9882 41.9802 87.0541 42.1428 87.189C42.3049 87.3239 42.386 87.5406 42.386 87.8392V88.0283H41.8025C41.1516 88.0248 40.6518 88.151 40.3032 88.406C39.9542 88.661 39.7784 89.0054 39.7754 89.4389C39.7754 89.8724 39.9372 90.2119 40.2604 90.4574C40.587 90.7029 41.0083 90.8257 41.5244 90.8257C42.0515 90.8257 42.4527 90.6885 42.7289 90.4138C43.0048 90.1395 43.1427 89.7697 43.1427 89.3048V87.9426C43.1397 87.4122 42.9915 87.0067 42.699 86.726C42.4031 86.4452 42.0052 86.3046 41.5058 86.3046Z" fill="#8C4D02"/>
<path d="M45.8171 86.5604C45.6863 86.4551 45.481 86.4024 45.2006 86.4024C44.7679 86.4054 44.4197 86.5672 44.1567 86.8878C43.8938 87.208 43.7619 87.6607 43.7619 88.2454V90.2467C43.7589 90.39 43.7952 90.5082 43.8714 90.6014C43.9476 90.6946 44.054 90.7412 44.1904 90.7412H44.5095V88.3034C44.5095 87.8426 44.5686 87.5251 44.6868 87.3504C44.802 87.1761 45.0028 87.089 45.2892 87.089C45.5757 87.089 45.8046 87.1621 45.9758 87.3084H46.0133V86.9552C46.0133 86.7976 45.9478 86.6657 45.8171 86.5604Z" fill="#8C4D02"/>
<path d="M49.1924 89.2517C49.1924 89.5692 49.1204 89.7966 48.9772 89.9337C48.8301 90.0705 48.6054 90.1391 48.3027 90.1391C47.9969 90.1391 47.7563 90.0736 47.5817 89.9428C47.407 89.8121 47.3195 89.6518 47.3195 89.462C47.3225 88.9638 47.7488 88.7148 48.5979 88.7148H49.1924V89.2517ZM48.3027 86.3046C47.8033 86.3046 47.4172 86.4013 47.144 86.5941C46.8712 86.7874 46.7348 86.9957 46.7348 87.2201V87.5751H46.781C47.0675 87.186 47.526 86.9912 48.1576 86.9912C48.5164 86.9882 48.7771 87.0541 48.9396 87.189C49.1018 87.3239 49.1829 87.5406 49.1829 87.8392V88.0283H48.5994C47.9484 88.0248 47.4487 88.151 47.1001 88.406C46.7511 88.661 46.5753 89.0054 46.5723 89.4389C46.5723 89.8724 46.7341 90.2119 47.0573 90.4574C47.3839 90.7029 47.8052 90.8257 48.3213 90.8257C48.8483 90.8257 49.2496 90.6885 49.5258 90.4138C49.8016 90.1395 49.9396 89.7697 49.9396 89.3048V87.9426C49.9365 87.4122 49.7884 87.0067 49.4959 86.726C49.1999 86.4452 48.8021 86.3046 48.3027 86.3046Z" fill="#8C4D02"/>
</svg>
