<svg width="18" height="18" viewBox="0 0 18 18" fill="#5B8E19" xmlns="http://www.w3.org/2000/svg">
<path d="M17.25 16.3331C17.25 16.5762 17.1534 16.8094 16.9815 16.9813C16.8096 17.1532 16.5764 17.2498 16.3333 17.2498H1.66667C1.42355 17.2498 1.19039 17.1532 1.01849 16.9813C0.846577 16.8094 0.75 16.5762 0.75 16.3331V6.69893C0.749903 6.55924 0.781732 6.42138 0.843056 6.29587C0.90438 6.17036 0.993577 6.06053 1.10383 5.97476L8.43717 0.271261C8.59808 0.146086 8.79613 0.078125 9 0.078125C9.20387 0.078125 9.40192 0.146086 9.56283 0.271261L16.8962 5.97476C17.0064 6.06053 17.0956 6.17036 17.1569 6.29587C17.2183 6.42138 17.2501 6.55924 17.25 6.69893V16.3331ZM15.4167 15.4164V7.14626L9 2.15593L2.58333 7.14626V15.4164H15.4167Z" fill="#4F4F4F"/>
</svg>
