<svg width="42" height="27" viewBox="0 0 42 27" fill="none" xmlns="http://www.w3.org/2000/svg">
<path d="M3.64156 0.108843C3.30523 0.264706 2.96069 0.650259 2.86225 0.986593C2.7392 1.41316 2.75561 13.3243 2.87866 13.554C3.10014 13.9806 3.55953 14.0626 3.88766 13.7345L4.09274 13.5376V7.41795V1.30652H16.7668H29.4408V7.34412C29.4408 11.7739 29.4654 13.4227 29.5392 13.554C29.7607 13.9806 30.2201 14.0626 30.5483 13.7345C30.7205 13.5704 30.7533 13.4555 30.7533 13.0372V12.545H34.7975C37.2503 12.545 38.9484 12.5778 39.1289 12.627C39.5472 12.7419 39.9328 13.0208 40.2445 13.4309C40.6875 14.0134 40.6711 14.0216 39.4078 14.0216C38.3331 14.0216 38.2839 14.0298 38.0952 14.2267C37.8984 14.4153 37.8902 14.4728 37.8902 15.4243C37.8902 16.6876 37.9804 16.9829 38.5054 17.508C38.9812 17.9919 39.3421 18.1232 40.1379 18.1232H40.6793V19.5998V21.0764H39.8343H38.9894L38.7351 20.5596C37.2175 17.4998 32.8124 17.508 31.3029 20.5678C31.1307 20.9041 30.9994 21.0764 30.9174 21.06C30.8108 21.0354 30.7861 20.6662 30.7533 18.3939C30.7123 15.49 30.7205 15.5556 30.2037 15.4489C29.9822 15.4079 29.9002 15.4407 29.6869 15.6458L29.4408 15.8919V18.4841V21.0764H22.6321H15.8316L15.6593 20.6908C14.9374 19.0502 13.0999 18.033 11.2952 18.2873C9.99909 18.4677 8.69477 19.4111 8.15335 20.5678L7.90725 21.0764L6.0205 21.06L4.13375 21.0354V20.2971V19.5588L5.70878 19.5342L7.28381 19.5178L7.44787 19.2963C7.67756 19.0174 7.66116 18.7549 7.42326 18.4759L7.22638 18.2463H3.80562H0.384865L0.187987 18.4759C-0.0499079 18.7549 -0.0663144 19.0174 0.163377 19.3045L0.327442 19.5178H1.55793H2.78022V20.3545C2.78022 20.9943 2.82123 21.2815 2.93608 21.5276C3.28882 22.2987 3.57593 22.3807 5.85644 22.3889H7.66116L7.7678 23.0205C8.31742 26.4823 12.6077 27.762 14.9539 25.1698C15.4214 24.653 15.889 23.7096 15.9547 23.1518C15.9793 22.9385 16.0121 22.676 16.0367 22.5694L16.0695 22.3889H23.436H30.8026L30.9256 23.0616C31.0979 23.9475 31.4014 24.5792 31.951 25.178C32.8534 26.146 33.6983 26.5151 35.019 26.5151C36.3398 26.5151 37.1847 26.146 38.087 25.178C38.6449 24.5628 38.9402 23.9803 39.1042 23.0944L39.2355 22.3971L40.4168 22.3725L41.598 22.3479L41.7949 22.11L42 21.8803L41.9754 17.8853C41.9508 14.0052 41.9426 13.8903 41.7703 13.4637C41.3684 12.4794 40.4414 11.618 39.5226 11.3883C39.2437 11.3145 39.0796 11.2243 39.0304 11.1094C38.9894 11.0192 38.7351 10.0512 38.4644 8.95196L37.9722 6.95856L38.2265 6.74528L38.4808 6.52379L38.448 5.66245C38.4234 4.91595 38.3824 4.73548 38.1937 4.35813C37.923 3.84953 37.4472 3.34093 37.0124 3.12764C36.43 2.83232 35.905 2.78311 33.2963 2.78311H30.7697L30.7369 1.81512C30.7123 0.953779 30.6877 0.822527 30.5154 0.576429C30.4088 0.42877 30.1709 0.231892 29.9822 0.14986C29.6623 0.00220108 29.1537 -0.00600243 16.7668 0.00220108C6.18457 0.00220108 3.84664 0.0186081 3.64156 0.108843ZM36.389 4.2761C36.7417 4.47298 37.0698 4.91595 37.1273 5.2769L37.1765 5.57221H33.9608H30.7533V4.82572V4.08743L33.444 4.11203C35.8147 4.13664 36.1593 4.15305 36.389 4.2761ZM37.1355 9.03399C37.4144 10.1742 37.6441 11.134 37.6441 11.1668C37.6441 11.2079 36.0937 11.2325 34.1987 11.2325H30.7533V9.09962V6.96677H33.6901H36.6187L37.1355 9.03399ZM40.6793 16.0724V16.8107H40.1543C39.7031 16.8107 39.6046 16.7861 39.416 16.5974C39.2273 16.4087 39.2027 16.3103 39.2027 15.8591V15.3341H39.941H40.6793V16.0724ZM12.5011 19.6408C13.2148 19.7556 14.0433 20.4119 14.4206 21.142C14.7898 21.8557 14.7898 22.9139 14.4206 23.6276C13.3378 25.7686 10.3764 25.7686 9.32642 23.6358C9.08032 23.1436 9.05571 23.0205 9.05571 22.3889C9.06391 21.7983 9.09673 21.6178 9.2854 21.224C9.68736 20.3955 10.5241 19.7474 11.3854 19.5998C11.7628 19.5342 11.8776 19.5424 12.5011 19.6408ZM35.4702 19.608C36.7335 19.8377 37.6933 20.8467 37.8492 22.1018C37.9558 22.9549 37.4964 24.0706 36.8237 24.6038C35.1667 25.9163 32.7877 25.1042 32.2627 23.0534C31.869 21.5029 32.9436 19.8787 34.5432 19.608C34.7811 19.567 34.978 19.5342 34.9862 19.526C34.9862 19.526 35.2077 19.5588 35.4702 19.608Z" fill="#828282"/>
</svg>
