<svg width="16" height="21" viewBox="0 0 16 21" fill="none" xmlns="http://www.w3.org/2000/svg">
<path d="M15.3327 20.1665H13.4993V18.3332C13.4993 17.6038 13.2096 16.9044 12.6939 16.3886C12.1782 15.8729 11.4787 15.5832 10.7493 15.5832H5.24935C4.52 15.5832 3.82053 15.8729 3.30481 16.3886C2.78908 16.9044 2.49935 17.6038 2.49935 18.3332V20.1665H0.666016V18.3332C0.666016 17.1176 1.1489 15.9518 2.00844 15.0923C2.86798 14.2327 4.03377 13.7498 5.24935 13.7498H10.7493C11.9649 13.7498 13.1307 14.2327 13.9903 15.0923C14.8498 15.9518 15.3327 17.1176 15.3327 18.3332V20.1665ZM7.99935 11.9165C7.27708 11.9165 6.56188 11.7742 5.89459 11.4978C5.2273 11.2214 4.62098 10.8163 4.11026 10.3056C3.59954 9.79487 3.19441 9.18855 2.91801 8.52126C2.64161 7.85397 2.49935 7.13877 2.49935 6.4165C2.49935 5.69423 2.64161 4.97904 2.91801 4.31175C3.19441 3.64445 3.59954 3.03814 4.11026 2.52742C4.62098 2.01669 5.2273 1.61157 5.89459 1.33517C6.56188 1.05877 7.27708 0.916504 7.99935 0.916504C9.45804 0.916504 10.857 1.49597 11.8884 2.52742C12.9199 3.55887 13.4993 4.95781 13.4993 6.4165C13.4993 7.87519 12.9199 9.27414 11.8884 10.3056C10.857 11.337 9.45804 11.9165 7.99935 11.9165ZM7.99935 10.0832C8.97181 10.0832 9.90444 9.69686 10.5921 9.00923C11.2797 8.3216 11.666 7.38896 11.666 6.4165C11.666 5.44404 11.2797 4.51141 10.5921 3.82378C9.90444 3.13615 8.97181 2.74984 7.99935 2.74984C7.02689 2.74984 6.09426 3.13615 5.40662 3.82378C4.71899 4.51141 4.33268 5.44404 4.33268 6.4165C4.33268 7.38896 4.71899 8.3216 5.40662 9.00923C6.09426 9.69686 7.02689 10.0832 7.99935 10.0832Z" fill="#5B8E19"/>
</svg>
