<svg width="22" height="25" viewBox="0 0 22 25" fill="none" xmlns="http://www.w3.org/2000/svg">
<path d="M5.16667 8.33341V6.00008C5.16667 4.45298 5.78125 2.96925 6.87521 1.87529C7.96917 0.78133 9.4529 0.166748 11 0.166748C12.5471 0.166748 14.0308 0.78133 15.1248 1.87529C16.2188 2.96925 16.8333 4.45298 16.8333 6.00008V8.33341H20.3333C20.6428 8.33341 20.9395 8.45633 21.1583 8.67512C21.3771 8.89392 21.5 9.19066 21.5 9.50008V23.5001C21.5 23.8095 21.3771 24.1062 21.1583 24.325C20.9395 24.5438 20.6428 24.6667 20.3333 24.6667H1.66667C1.35725 24.6667 1.0605 24.5438 0.841709 24.325C0.622916 24.1062 0.5 23.8095 0.5 23.5001V9.50008C0.5 9.19066 0.622916 8.89392 0.841709 8.67512C1.0605 8.45633 1.35725 8.33341 1.66667 8.33341H5.16667ZM5.16667 10.6667H2.83333V22.3334H19.1667V10.6667H16.8333V13.0001H14.5V10.6667H7.5V13.0001H5.16667V10.6667ZM7.5 8.33341H14.5V6.00008C14.5 5.07182 14.1313 4.18158 13.4749 3.52521C12.8185 2.86883 11.9283 2.50008 11 2.50008C10.0717 2.50008 9.1815 2.86883 8.52513 3.52521C7.86875 4.18158 7.5 5.07182 7.5 6.00008V8.33341Z" fill="black"/>
</svg>
